<?xml version="1.0" standalone="no"?>
<!DOCTYPE svg PUBLIC "-//W3C//DTD SVG 20010904//EN"
 "http://www.w3.org/TR/2001/REC-SVG-20010904/DTD/svg10.dtd">
<svg version="1.0" xmlns="http://www.w3.org/2000/svg"
 width="4156.000000pt" height="2906.000000pt" viewBox="0 0 4156.000000 2906.000000"
 preserveAspectRatio="xMidYMid meet">
<metadata>
Created by potrace 1.16, written by Peter Selinger 2001-2019
</metadata>
<g transform="translate(0.000000,2906.000000) scale(0.100000,-0.100000)"
fill="#000000" stroke="none">
<path d="M0 14530 l0 -14530 20780 0 20780 0 0 14530 0 14530 -20780 0 -20780
0 0 -14530z m41524 14484 c3 -9 5 -6532 4 -14497 l-3 -14482 -20745 0 -20745
0 -3 14485 c-1 7967 0 14491 3 14497 3 10 4174 13 20744 13 18915 0 20739 -1
20745 -16z"/>
<path d="M23570 24048 c-243 -16 -657 -112 -925 -213 -49 -18 -121 -38 -160
-44 -38 -6 -86 -14 -105 -17 -19 -3 -102 -16 -185 -29 -82 -14 -168 -27 -190
-31 -22 -3 -42 -7 -45 -9 -3 -2 -26 -6 -50 -10 -60 -8 -241 -43 -315 -60 -33
-7 -76 -16 -95 -20 -47 -9 -437 -106 -575 -143 -113 -31 -445 -135 -480 -151
-11 -5 -83 -33 -160 -61 -224 -83 -587 -254 -750 -353 -412 -251 -708 -519
-892 -807 -38 -59 -130 -243 -166 -330 -48 -117 -96 -314 -103 -420 -12 -214
-3 -392 31 -590 19 -114 149 -516 190 -589 8 -14 39 -78 68 -142 30 -63 83
-165 119 -225 35 -60 72 -127 82 -149 11 -22 34 -71 52 -110 149 -317 224
-479 221 -480 -73 -39 -290 -174 -402 -251 -82 -56 -182 -124 -222 -150 -303
-206 -672 -488 -908 -695 -166 -146 -354 -345 -467 -494 -191 -255 -267 -423
-272 -605 -8 -300 168 -481 574 -589 140 -37 183 -44 365 -59 123 -10 521 -9
680 2 187 12 222 15 350 32 22 2 56 6 75 8 54 6 153 18 170 21 9 2 43 6 75 10
33 4 69 9 80 11 11 2 41 6 67 9 41 5 127 20 233 40 17 3 104 20 195 36 168 32
217 42 375 78 50 12 160 37 245 56 85 20 162 37 170 39 63 18 604 158 628 163
24 6 27 -4 13 -39 -5 -13 -41 -122 -80 -243 -38 -121 -131 -411 -206 -645 -75
-234 -175 -544 -221 -690 -47 -146 -114 -353 -148 -460 -35 -107 -82 -253
-105 -325 -74 -230 -134 -358 -215 -463 -85 -111 -247 -217 -459 -301 -155
-62 -204 -116 -194 -215 4 -43 10 -55 49 -92 33 -31 64 -48 113 -63 67 -21 84
-22 763 -21 468 0 708 3 736 11 22 6 60 22 83 35 100 58 102 179 6 264 -41 36
-158 100 -183 100 -34 0 -170 79 -215 124 -74 74 -99 132 -99 231 -1 95 5 127
49 260 18 55 79 242 135 415 56 173 119 367 140 430 21 63 75 230 120 370 45
140 97 300 116 355 86 258 264 813 264 827 0 9 -15 67 -34 129 -19 62 -33 115
-32 117 2 1 48 16 102 32 55 16 126 37 159 48 l61 19 21 -76 c11 -42 37 -139
58 -216 20 -77 54 -203 75 -280 21 -77 55 -203 75 -280 51 -196 93 -351 111
-410 8 -27 16 -60 19 -72 9 -42 13 -57 45 -173 17 -63 49 -180 70 -260 21 -80
45 -171 54 -203 9 -32 16 -59 16 -60 0 -1 -222 -1 -492 0 -271 2 -498 0 -504
-5 -6 -4 -18 -36 -27 -72 -9 -36 -35 -132 -57 -215 -22 -82 -40 -156 -40 -162
0 -10 130 -13 619 -13 l620 0 15 -52 c8 -29 29 -107 46 -173 18 -66 45 -166
60 -222 34 -121 46 -234 31 -289 -15 -56 -60 -94 -181 -154 -112 -55 -154 -87
-168 -129 -7 -23 -8 -40 -3 -111 2 -30 58 -88 110 -113 l46 -22 1285 0 1285 0
58 29 c76 39 102 75 101 141 -1 61 -22 103 -67 138 -36 27 -52 35 -171 83 -41
16 -85 43 -106 64 -44 44 -93 155 -130 295 -23 86 -116 419 -272 970 -21 77
-52 187 -68 245 -37 139 -216 775 -284 1015 -30 105 -64 224 -75 265 -11 41
-54 197 -96 345 -42 149 -83 294 -91 323 -34 125 -46 170 -60 217 -8 28 -16
57 -18 65 -2 8 -14 49 -26 90 -34 120 -35 113 13 132 46 19 242 95 347 134
130 50 654 268 777 325 24 10 45 19 48 19 3 0 24 9 48 19 123 56 365 164 382
171 11 4 52 22 90 40 39 17 84 38 100 45 44 19 145 66 268 124 59 28 155 74
215 102 164 77 721 355 862 430 69 36 186 98 260 136 211 111 241 127 377 204
328 185 907 544 1295 803 104 70 404 293 577 430 488 387 836 773 958 1061 56
132 82 303 60 395 -20 82 -27 101 -50 141 -52 89 -128 161 -223 211 -49 26
-116 57 -149 69 -65 25 -66 25 -110 34 -16 3 -43 10 -60 15 -31 9 -132 30
-169 35 -12 1 -46 6 -76 9 -30 4 -68 9 -85 12 -96 13 -724 2 -865 -16 -41 -5
-104 -12 -140 -15 -116 -10 -164 -16 -255 -30 -49 -8 -110 -17 -135 -20 -54
-7 -227 -34 -255 -40 -11 -2 -114 -22 -230 -44 -259 -49 -620 -124 -700 -145
-33 -9 -139 -34 -235 -56 -96 -23 -224 -55 -283 -72 -60 -16 -109 -29 -111
-27 -7 9 -136 194 -174 251 -444 648 -596 850 -784 1040 -199 201 -387 339
-623 456 -218 109 -337 147 -607 192 -132 22 -370 30 -538 18z m513 -208 c244
-39 358 -75 558 -175 272 -137 554 -374 758 -635 135 -173 186 -250 166 -250
-9 0 -18 -7 -21 -15 -4 -8 -10 -13 -14 -10 -4 3 -10 -2 -14 -10 -3 -8 -12 -15
-21 -15 -8 0 -15 -4 -15 -10 0 -5 -11 -12 -25 -16 -14 -3 -25 -10 -25 -15 0
-5 -6 -9 -13 -9 -12 0 -25 -8 -73 -49 -7 -5 -15 -7 -18 -4 -3 4 -6 0 -6 -7 0
-7 -3 -11 -6 -7 -3 3 -14 -3 -25 -14 -10 -10 -26 -19 -34 -19 -8 0 -15 -3 -15
-7 0 -7 120 -163 399 -519 31 -39 124 -158 207 -265 82 -107 201 -259 264
-339 63 -80 184 -235 270 -345 86 -110 185 -237 220 -282 l65 -83 123 123 c68
67 142 144 164 170 l41 48 -43 62 c-23 34 -86 125 -138 202 -53 77 -163 236
-245 354 -96 138 -145 217 -139 223 10 10 143 46 367 97 77 18 154 37 170 42
51 15 499 106 750 153 307 58 281 53 415 71 63 9 127 18 141 20 54 9 148 21
239 30 36 3 76 8 90 10 14 2 58 7 98 10 41 4 83 8 95 11 36 7 627 6 697 -1 93
-9 250 -34 285 -45 17 -5 45 -12 62 -15 38 -6 99 -30 203 -78 140 -66 203
-160 203 -302 0 -87 -14 -137 -68 -250 -155 -323 -605 -765 -1265 -1242 -107
-77 -267 -187 -355 -243 -88 -57 -182 -117 -210 -135 -49 -32 -310 -194 -535
-332 -112 -69 -249 -150 -340 -201 -25 -13 -74 -42 -110 -62 -36 -21 -121 -67
-190 -103 -69 -36 -172 -91 -230 -121 -133 -71 -904 -457 -1030 -515 -52 -25
-144 -68 -205 -97 -178 -84 -307 -144 -311 -144 -5 0 -58 -24 -192 -87 -52
-23 -95 -43 -98 -43 -2 0 -32 -13 -66 -29 -103 -48 -178 -81 -183 -81 -3 0
-24 -9 -48 -19 -281 -129 -1046 -432 -1607 -636 -146 -53 -278 -103 -295 -110
-34 -15 -682 -226 -950 -310 -99 -31 -198 -62 -220 -70 -52 -17 -220 -68 -315
-95 -172 -49 -657 -180 -720 -195 -8 -2 -85 -22 -170 -44 -161 -41 -536 -125
-747 -166 -67 -14 -134 -27 -150 -30 -15 -3 -41 -8 -58 -10 -16 -3 -37 -7 -45
-8 -8 -2 -37 -7 -65 -11 -27 -4 -63 -11 -80 -16 -16 -5 -52 -11 -80 -14 -27
-4 -63 -8 -80 -11 -118 -17 -274 -38 -455 -60 -19 -2 -53 -7 -75 -9 -162 -21
-773 -29 -940 -13 -155 14 -345 63 -465 118 -93 44 -176 115 -213 184 -42 80
-31 219 28 358 16 40 134 222 188 292 277 359 753 758 1507 1263 193 129 405
262 418 262 4 0 29 -48 57 -108 27 -59 84 -179 126 -267 83 -174 113 -238 154
-330 15 -33 60 -127 100 -210 39 -82 78 -165 86 -183 13 -32 16 -33 59 -28 25
3 79 8 120 11 41 4 91 8 110 10 19 2 76 7 125 10 50 4 144 15 210 25 66 11
140 22 165 25 124 16 204 28 290 45 52 10 115 21 140 25 179 25 670 132 850
185 36 10 151 42 255 70 324 88 1052 337 1270 435 28 13 124 54 215 93 91 39
230 102 310 140 80 38 197 94 260 124 141 67 533 280 693 377 65 39 122 71
127 71 6 0 10 4 10 8 0 5 -133 168 -296 363 -162 195 -530 634 -815 977 -286
342 -524 622 -529 622 -5 0 -137 -77 -292 -171 -156 -95 -337 -204 -403 -244
-250 -151 -634 -386 -843 -517 -173 -110 -653 -436 -797 -543 -88 -65 -238
-182 -333 -259 -216 -175 -204 -167 -249 -175 -81 -13 -484 -3 -512 13 -3 2
-32 7 -63 10 -53 6 -85 13 -268 51 -36 8 -82 21 -102 30 -21 8 -38 13 -38 10
0 -4 -6 -3 -12 2 -7 4 -15 8 -18 9 -79 12 -260 101 -327 159 -56 49 -132 176
-233 390 -151 317 -226 559 -258 830 -11 96 -7 344 7 420 8 39 15 80 16 91 9
65 95 284 157 399 76 142 112 194 229 330 165 191 490 441 757 582 48 25 114
60 147 78 33 18 88 45 122 59 35 14 86 37 115 50 82 37 122 53 288 116 130 49
481 169 515 176 6 1 128 32 272 68 143 36 294 72 335 81 40 9 82 18 93 21 24
6 109 22 150 30 17 3 47 9 68 13 20 5 37 8 37 6 0 -1 -96 -51 -212 -110 -117
-59 -253 -131 -303 -160 -49 -28 -148 -85 -220 -125 -436 -246 -675 -405 -953
-635 -278 -230 -522 -420 -1039 -809 -233 -175 -423 -321 -423 -325 0 -5 23
-40 50 -80 35 -48 55 -69 63 -64 26 16 788 592 1002 757 233 179 507 400 590
476 28 25 64 54 80 66 82 57 395 264 399 264 3 0 66 36 141 80 75 44 138 80
140 80 2 0 54 29 115 65 61 36 113 65 115 65 3 0 42 22 87 49 100 59 692 354
799 399 42 17 112 48 154 67 104 48 354 139 495 180 216 63 513 119 675 127
128 7 346 -4 458 -22z"/>
<path d="M25053 22452 c-40 -26 -94 -60 -120 -76 -27 -16 -77 -48 -113 -71
-66 -42 -290 -181 -322 -200 -9 -5 -64 -39 -122 -75 -141 -87 -487 -296 -746
-450 -115 -69 -209 -129 -209 -135 -1 -5 121 -155 269 -332 148 -178 441 -529
652 -780 210 -252 452 -541 536 -643 85 -102 160 -191 166 -198 10 -10 59 19
242 140 315 210 639 451 896 666 118 99 398 353 398 362 0 3 -55 75 -122 160
-67 85 -224 286 -348 445 -266 340 -854 1095 -918 1178 -25 31 -50 57 -56 57
-6 -1 -44 -22 -83 -48z m336 -424 c6 -18 19 -70 30 -115 23 -98 20 -252 -6
-323 -39 -104 -139 -227 -248 -306 -63 -44 -101 -81 -94 -88 2 -3 56 -18 119
-33 l115 -29 1 -67 c1 -41 -2 -67 -9 -67 -6 0 -44 11 -84 25 -40 14 -97 28
-126 31 -29 3 -54 7 -57 9 -3 2 -12 0 -20 -5 -12 -7 -15 -36 -17 -122 -1 -62
2 -132 7 -156 9 -49 3 -55 -36 -43 -16 5 -46 12 -66 16 l-38 6 0 139 c0 116
-3 140 -15 140 -8 0 -55 -31 -106 -70 -271 -206 -472 -222 -748 -61 l-73 43
123 63 c68 34 176 90 240 124 129 68 207 97 289 106 30 3 69 7 85 9 17 2 55 0
85 -4 140 -22 128 -22 134 8 3 15 8 50 12 77 19 160 93 301 239 455 39 41 108
119 154 173 46 53 87 97 92 97 4 0 12 -15 18 -32z m78 -945 c24 -10 31 -104
11 -148 -8 -18 -17 -24 -27 -19 -9 3 -28 11 -43 16 -16 5 -28 17 -29 26 -4 74
-10 114 -19 131 -23 45 -18 44 107 -6z m138 -55 l65 -32 0 -48 c0 -50 -26
-118 -45 -118 -6 0 -15 4 -20 9 -6 5 -28 18 -50 30 l-40 21 0 85 c0 61 4 85
12 85 7 0 42 -14 78 -32z m202 -80 l25 -3 -5 -90 c-5 -86 -12 -133 -21 -142
-4 -4 -28 13 -119 82 l-26 20 16 70 c8 39 17 75 19 82 2 8 14 7 44 -3 23 -8
53 -15 67 -16z m-905 -237 c18 -11 54 -25 80 -31 49 -13 55 -20 60 -80 l3 -35
-50 0 c-74 1 -113 20 -120 59 -11 71 -15 106 -11 106 3 0 20 -9 38 -19z m73
-182 c28 -6 55 -13 61 -14 6 -2 14 -14 17 -27 3 -13 10 -40 15 -60 7 -25 6
-40 -1 -47 -14 -14 -85 -14 -125 0 -33 11 -37 18 -47 89 -4 25 -9 53 -11 62
-5 19 -3 18 91 -3z m145 -256 c17 -39 30 -74 30 -77 0 -11 -125 -6 -175 7
l-50 13 -3 66 -3 67 86 -2 85 -2 30 -72z"/>
<path d="M24595 21176 c-27 -8 -63 -17 -80 -21 -27 -6 -28 -8 -10 -15 11 -4
35 -3 54 2 81 23 262 11 601 -38 31 -5 33 -4 20 9 -52 49 -468 94 -585 63z"/>
<path d="M25725 18343 c-189 -15 -279 -63 -304 -161 -34 -131 39 -206 265
-271 89 -26 148 -68 166 -118 11 -31 13 -387 13 -2048 0 -1990 0 -2010 -20
-2050 -27 -53 -79 -85 -200 -123 -120 -37 -186 -78 -211 -130 -36 -76 -11
-175 55 -219 82 -55 33 -53 1387 -53 1367 0 1314 -2 1393 57 76 58 88 178 24
253 -34 41 -64 55 -186 90 -112 33 -170 67 -202 120 -20 35 -20 37 -20 2060 0
2025 0 2025 21 2060 33 57 94 88 254 130 115 30 181 107 174 204 -7 110 -78
164 -259 196 -54 9 -2234 12 -2350 3z"/>
<path d="M29919 18345 c-3 -2 -192 -5 -420 -6 -448 -1 -503 -6 -578 -53 -102
-64 -119 -197 -37 -284 41 -45 87 -67 187 -92 46 -11 111 -27 144 -36 117 -30
216 -124 260 -248 10 -28 31 -77 47 -108 15 -31 28 -60 28 -63 0 -6 493 -1247
570 -1435 21 -52 197 -493 391 -980 194 -487 441 -1107 549 -1378 l197 -493
119 -1 118 -2 49 140 c27 76 64 182 82 234 19 52 67 190 108 305 41 116 107
302 147 415 39 113 89 252 110 310 22 58 57 157 79 220 21 63 58 167 81 230
23 63 45 126 50 140 8 25 302 862 320 910 9 24 20 1283 11 1274 -6 -6 -38 -97
-146 -414 -51 -151 -114 -336 -140 -410 -26 -74 -58 -170 -71 -212 -14 -43
-28 -78 -32 -78 -4 0 -58 125 -121 278 -62 152 -120 291 -127 307 -7 17 -47
113 -89 215 -42 102 -102 248 -135 325 -73 175 -197 475 -256 620 -25 61 -49
119 -54 130 -5 11 -28 65 -51 120 -22 55 -46 106 -51 112 -8 10 -163 13 -672
13 -364 0 -665 -2 -667 -5z"/>
<path d="M32900 16063 c-1 -2130 -2 -2291 -18 -2338 -12 -35 -27 -56 -51 -73
-38 -24 -151 -61 -274 -87 -91 -20 -161 -62 -189 -115 -24 -44 -18 -127 13
-177 24 -39 91 -76 167 -92 38 -8 424 -11 1336 -11 1382 0 1333 -2 1411 51 45
31 66 71 69 127 4 57 -15 107 -56 149 -31 32 -82 54 -215 92 -97 28 -153 72
-175 136 -16 47 -17 187 -15 2040 2 1915 3 1991 21 2027 24 50 95 92 209 125
113 32 157 53 190 93 63 75 57 203 -12 258 -26 20 -72 40 -136 59 -55 16 -147
18 -1167 21 l-1108 3 0 -2288z"/>
<path d="M10850 18126 c-3 -2 -54 -7 -115 -11 -60 -3 -121 -8 -135 -10 -14 -2
-50 -7 -80 -10 -30 -4 -68 -9 -85 -11 -28 -3 -147 -22 -190 -29 -50 -9 -398
-98 -465 -120 -210 -66 -286 -95 -475 -179 -254 -114 -290 -133 -490 -255
-260 -160 -444 -295 -685 -505 -327 -284 -696 -713 -915 -1066 -43 -69 -97
-154 -120 -190 -23 -36 -48 -78 -56 -95 -9 -16 -30 -57 -49 -89 -54 -99 -187
-368 -199 -408 -15 -45 -31 -59 -62 -53 -20 4 -151 30 -569 110 -14 3 -59 11
-100 20 -41 8 -88 17 -104 19 -16 3 -52 10 -80 16 -28 5 -195 37 -371 70 -176
33 -340 65 -365 70 -25 5 -61 12 -80 15 -19 3 -42 8 -50 10 -8 2 -33 7 -56 10
-22 3 -56 10 -75 15 -19 6 -35 10 -37 10 -13 0 109 -380 170 -535 76 -190 262
-550 381 -740 75 -118 266 -378 344 -466 188 -214 398 -418 524 -511 28 -21
28 -23 21 -87 -15 -150 -6 -919 13 -1034 2 -12 7 -49 10 -82 21 -213 94 -621
150 -840 154 -595 434 -1228 757 -1713 28 -43 51 -82 51 -88 1 -27 -239 -429
-371 -623 -51 -74 -156 -203 -199 -242 -15 -15 -53 -40 -85 -55 l-56 -29 89
-245 c49 -135 93 -254 98 -265 5 -11 28 -72 51 -135 77 -213 111 -295 128
-316 36 -42 128 -78 292 -114 58 -12 128 -34 155 -48 68 -35 182 -50 396 -51
l175 -2 2 43 c5 86 13 165 27 253 8 50 16 110 19 135 3 25 15 90 26 145 12 55
23 114 25 132 8 53 43 202 71 298 14 50 28 100 31 113 3 14 11 21 19 18 7 -3
66 -49 131 -104 122 -103 158 -129 356 -264 196 -132 363 -224 667 -366 257
-121 625 -237 950 -301 107 -21 130 -25 210 -36 25 -4 66 -11 91 -15 125 -24
720 -35 914 -18 273 25 666 101 914 178 246 77 623 241 801 349 36 22 66 38
68 37 4 -5 40 -198 46 -254 7 -56 14 -109 21 -157 9 -60 19 -141 19 -162 1
-23 3 -23 141 -23 215 0 345 15 419 49 35 16 98 36 142 45 108 24 232 64 272
88 54 33 67 59 172 348 23 63 46 124 51 135 19 42 179 488 179 499 0 6 -25 24
-55 41 -30 16 -77 52 -104 80 -72 74 -191 226 -191 244 0 9 46 72 101 141 159
197 389 527 466 670 295 543 329 615 521 1115 119 309 232 684 297 983 5 21 9
38 19 80 49 188 115 521 141 702 3 25 10 63 15 85 19 81 40 75 -237 70 -137
-2 -410 -7 -608 -10 -198 -2 -484 -8 -635 -11 -393 -9 -620 -10 -620 -4 0 3
58 24 128 46 486 159 953 442 1331 809 496 482 941 1240 1120 1908 27 101 27
101 -11 92 -18 -4 -64 -13 -103 -20 -38 -6 -200 -37 -360 -68 -159 -31 -303
-58 -320 -61 -16 -3 -74 -15 -129 -26 -54 -11 -108 -20 -120 -20 -17 0 -32 22
-76 112 -68 137 -257 456 -357 601 -40 60 -131 181 -200 270 -356 456 -749
819 -1233 1142 -189 126 -466 280 -610 339 -25 10 -67 29 -93 42 -69 34 -440
169 -517 189 -36 9 -94 25 -129 36 -35 10 -78 22 -95 25 -17 3 -53 11 -81 19
-27 8 -115 25 -195 39 -149 26 -177 30 -290 42 -36 3 -74 8 -85 10 -30 6 -550
16 -555 10z m312 -1455 c40 -6 125 -12 188 -16 63 -3 126 -7 140 -9 31 -5 120
-19 140 -22 136 -20 370 -76 505 -121 163 -53 424 -171 573 -260 41 -24 75
-43 78 -43 2 0 54 -33 116 -74 371 -242 727 -613 990 -1033 47 -75 64 -110 55
-114 -6 -4 -75 -19 -152 -33 -77 -14 -223 -41 -325 -61 -246 -48 -702 -132
-1035 -190 -319 -56 -362 -68 -520 -145 -139 -68 -267 -150 -500 -320 -255
-186 -312 -231 -534 -424 -113 -98 -214 -185 -223 -193 -15 -14 -36 1 -220
159 -273 235 -776 613 -944 710 -110 63 -243 129 -271 134 -13 3 -43 11 -66
18 -45 15 -122 33 -172 40 -16 2 -142 25 -280 50 -137 25 -266 48 -285 51 -19
3 -82 15 -139 26 -57 11 -122 22 -145 25 -23 4 -45 9 -49 14 -8 7 160 297 256
440 384 574 997 1044 1602 1230 39 12 77 23 85 25 8 2 51 15 95 29 44 14 92
27 107 30 15 3 31 7 35 9 5 3 31 8 58 11 50 6 116 16 145 21 9 2 43 6 75 10
33 4 71 8 85 10 14 2 57 7 95 10 39 4 72 9 74 11 8 8 291 4 363 -5z m-6072
-1397 c19 -4 44 -8 55 -10 36 -5 125 -22 390 -73 143 -28 271 -52 285 -55 14
-2 77 -14 140 -26 63 -12 122 -24 130 -25 8 -2 101 -19 205 -39 105 -20 210
-40 235 -46 25 -6 81 -17 125 -24 93 -17 331 -62 740 -141 279 -54 371 -71
425 -80 14 -2 59 -11 100 -20 41 -9 87 -18 102 -20 15 -2 35 -6 45 -9 10 -3
38 -8 63 -11 24 -4 47 -8 50 -10 3 -2 50 -11 105 -20 55 -10 109 -19 120 -22
11 -2 61 -11 110 -19 50 -8 149 -26 220 -39 72 -13 146 -27 165 -30 19 -3 42
-8 50 -10 8 -2 33 -7 56 -10 22 -3 55 -10 72 -15 18 -5 32 -7 32 -5 0 17 196
-73 325 -148 171 -101 617 -437 884 -666 112 -97 209 -179 215 -184 7 -5 -36
-53 -114 -126 l-125 -119 -60 49 c-97 79 -512 391 -605 455 -47 32 -133 91
-191 131 -90 62 -109 71 -119 58 -16 -19 -12 -24 57 -70 32 -21 68 -48 81 -59
13 -12 24 -19 26 -16 1 3 8 -1 16 -8 8 -6 69 -51 135 -100 165 -120 605 -472
605 -484 0 -6 -86 -94 -192 -197 -105 -102 -268 -269 -362 -371 -121 -132
-176 -185 -190 -184 -38 3 -171 15 -201 19 -57 7 -205 21 -315 30 -36 3 -83 8
-105 10 -22 2 -74 7 -115 10 -98 8 -163 14 -230 20 -69 6 -176 15 -350 30
-163 13 -266 29 -460 71 -63 14 -122 26 -130 28 -137 28 -471 146 -620 220
-367 182 -602 349 -904 645 -169 165 -247 255 -378 429 -171 229 -268 388
-424 697 -76 152 -184 406 -184 436 0 6 -6 25 -14 42 -8 18 -19 46 -24 62 -5
17 -13 38 -17 49 -7 15 -4 17 11 13 10 -3 35 -9 54 -13z m11160 -9 c0 -14 -7
-34 -36 -102 -8 -17 -14 -36 -14 -43 0 -43 -198 -474 -308 -671 -161 -288
-484 -714 -693 -914 -223 -213 -542 -440 -804 -574 -197 -101 -523 -229 -652
-256 -254 -54 -452 -88 -588 -100 -38 -3 -88 -8 -110 -10 -44 -4 -131 -12
-240 -20 -38 -3 -86 -8 -105 -10 -19 -2 -75 -7 -125 -10 -49 -3 -106 -8 -125
-10 -19 -3 -64 -7 -100 -10 -120 -9 -185 -16 -210 -20 -14 -2 -63 -7 -109 -10
-47 -4 -92 -8 -102 -10 -10 -2 -46 -6 -81 -10 -136 -13 -211 -29 -539 -110
-439 -109 -476 -123 -684 -244 -287 -168 -595 -465 -778 -750 -20 -30 -33 -42
-45 -38 -9 3 -53 15 -97 27 -44 11 -101 27 -127 35 -44 13 -48 12 -49 -3 0 -9
-2 -24 -3 -32 -6 -29 -16 -115 -22 -190 -4 -41 -7 -76 -8 -77 -4 -5 -232 -30
-238 -26 -5 2 -8 -113 -8 -257 0 -247 -5 -300 -29 -300 -5 0 -88 83 -186 185
l-177 185 80 108 c45 59 85 112 89 117 4 6 44 57 87 115 89 118 328 406 480
580 522 595 1072 1126 1631 1575 61 49 112 92 113 97 2 4 9 8 16 8 6 0 18 9
26 20 8 11 20 20 26 20 7 0 14 4 16 8 2 4 57 48 123 96 66 49 136 101 155 115
19 15 88 64 153 110 64 46 117 86 117 90 0 4 -5 12 -12 19 -11 11 -58 -18
-273 -169 -27 -20 -81 -57 -120 -84 -524 -364 -1339 -1080 -1845 -1621 -256
-274 -537 -600 -774 -899 -87 -110 -163 -204 -167 -210 -6 -6 -36 17 -79 60
l-70 69 24 26 c13 14 70 95 126 180 57 85 127 188 156 228 30 39 80 107 111
150 139 187 477 590 695 829 222 243 849 852 1138 1105 411 361 874 702 1090
804 52 25 107 52 121 59 15 8 44 17 64 20 30 3 220 37 450 80 17 3 82 14 145
25 63 12 122 23 130 25 8 2 37 6 64 10 27 3 52 8 56 10 3 2 26 6 50 10 25 3
74 13 110 20 36 8 81 16 100 19 19 3 91 17 160 30 69 14 136 27 150 30 14 2
43 7 65 11 22 4 105 20 185 35 80 16 156 31 170 34 231 43 474 89 508 97 23 5
59 11 80 14 20 3 55 10 77 15 33 8 125 26 295 57 14 2 93 17 175 33 83 16 256
50 385 74 129 25 339 66 465 90 259 50 275 52 275 31z m-8604 -2715 c55 -11
113 -23 129 -26 17 -2 37 -7 45 -9 56 -16 238 -38 458 -55 131 -10 194 -16
282 -24 25 -3 81 -8 125 -11 44 -4 96 -8 115 -10 19 -2 71 -6 115 -10 44 -4
98 -9 120 -11 22 -2 74 -6 115 -10 41 -3 82 -7 90 -9 8 -2 49 -6 90 -10 41 -4
77 -9 79 -11 2 -2 -34 -47 -81 -101 -217 -252 -480 -597 -650 -852 -76 -113
-122 -168 -272 -321 -177 -181 -236 -251 -349 -418 l-57 -82 -40 80 c-66 132
-179 398 -210 495 -87 272 -140 480 -154 600 -3 28 -8 61 -10 75 -4 23 -8 51
-21 163 -3 23 -7 60 -10 82 -5 40 -13 211 -18 398 -2 53 0 97 4 97 4 0 51 -9
105 -20z m4977 -284 c157 -212 383 -517 501 -676 55 -74 135 -183 179 -242
l80 -108 504 0 c276 0 503 -2 503 -4 0 -12 -65 -177 -119 -304 -108 -253 -261
-538 -375 -701 -20 -28 -52 -75 -72 -103 -48 -68 -136 -178 -143 -178 -8 0
-30 35 -142 220 -103 172 -268 423 -397 603 -56 78 -146 181 -270 310 -116
119 -209 225 -244 277 -175 261 -495 683 -677 893 -42 48 -77 92 -79 96 -2 6
94 18 373 46 22 2 78 7 125 11 47 3 86 7 87 8 1 1 14 2 28 2 22 0 44 -24 138
-150z m-795 -70 c271 -320 456 -564 727 -956 32 -47 66 -94 76 -105 18 -21 18
-22 -51 -90 -42 -42 -73 -65 -78 -60 -5 6 -60 75 -122 155 -228 290 -202 260
-539 645 -62 71 -169 189 -236 260 -163 173 -199 215 -193 220 8 8 251 64 278
64 20 0 48 -28 138 -133z m-467 -19 c19 -23 103 -117 188 -210 188 -207 488
-566 624 -747 56 -74 109 -144 119 -154 10 -11 30 -38 45 -60 16 -23 34 -47
41 -55 7 -8 20 -25 29 -38 15 -23 15 -26 -23 -66 -109 -118 -320 -327 -330
-327 -7 0 -15 7 -18 16 -3 9 -6 132 -6 273 l0 258 -100 12 c-56 6 -112 11
-125 11 -19 0 -25 5 -26 23 0 12 -2 29 -4 37 -1 8 -6 46 -9 83 -4 37 -9 76
-11 85 -1 9 -6 36 -10 58 l-6 42 -47 -15 c-51 -15 -186 -52 -215 -58 -11 -2
-24 6 -34 23 -37 58 -140 191 -219 282 -108 125 -216 228 -344 330 -58 45
-106 84 -108 85 -9 8 161 78 254 104 194 55 257 68 280 58 12 -5 37 -28 55
-50z m-681 -204 c42 -29 191 -153 284 -238 120 -109 273 -292 394 -472 23 -33
47 -63 54 -65 7 -3 39 4 71 14 32 10 68 20 80 23 12 3 34 8 50 11 25 6 27 4
28 -25 1 -17 2 -34 3 -38 5 -21 20 -170 19 -184 -2 -13 18 -19 113 -30 l116
-14 1 -220 2 -220 109 -160 c60 -88 132 -189 160 -225 79 -102 266 -380 398
-590 92 -148 218 -370 218 -386 0 -9 -146 -93 -255 -147 -106 -52 -295 -131
-405 -169 -123 -42 -387 -112 -460 -122 -25 -3 -56 -8 -70 -10 -14 -2 -59 -8
-100 -12 -41 -4 -91 -9 -110 -11 -84 -8 -532 -11 -605 -3 -44 4 -107 11 -140
15 -58 6 -318 56 -400 76 -106 27 -369 116 -445 152 -253 118 -324 154 -415
209 -167 101 -273 176 -425 300 -186 151 -190 155 -190 165 0 29 134 229 386
580 67 92 147 207 178 255 l56 86 0 215 c0 119 4 218 8 221 5 3 33 8 63 11 30
3 63 8 74 10 11 2 34 4 51 4 31 1 32 2 38 64 17 152 23 197 29 204 2 2 51 -9
109 -25 57 -15 110 -26 117 -24 6 2 35 38 63 80 96 142 282 366 394 473 63 60
300 239 317 239 7 0 24 -8 37 -17z m-1782 -1192 c160 -165 292 -303 292 -307
0 -11 -74 -124 -82 -124 -25 0 -172 117 -259 208 -112 115 -185 218 -263 371
l-48 93 28 29 c15 16 30 29 33 29 3 0 138 -135 299 -299z m3787 133 c-101
-196 -245 -375 -390 -485 -69 -52 -123 -85 -128 -78 -2 2 -23 31 -46 64 l-42
59 303 303 303 303 28 -28 28 -29 -56 -109z m-4123 -34 c30 -58 66 -122 79
-143 41 -65 163 -210 223 -265 l58 -52 -40 -48 c-22 -26 -52 -58 -66 -71 l-26
-24 -26 24 c-37 33 -179 227 -235 319 -46 75 -129 241 -129 256 0 8 102 116
106 111 1 -1 26 -49 56 -107z m4270 -101 c-101 -205 -177 -323 -275 -426 l-70
-74 -68 67 -67 67 65 61 c121 112 224 254 313 428 l45 88 54 -54 54 -54 -51
-103z m-4357 -239 c114 -182 260 -345 378 -423 36 -24 55 -43 50 -50 -4 -7
-53 -81 -109 -164 -56 -84 -125 -193 -154 -243 -33 -58 -58 -90 -69 -90 -28 0
-151 81 -249 164 -141 118 -402 424 -402 470 0 27 297 472 378 567 l34 39 57
-112 c32 -62 70 -133 86 -158z m4528 202 c44 -57 334 -489 355 -527 9 -17 2
-32 -46 -96 -135 -179 -245 -297 -392 -419 -46 -38 -126 -90 -202 -131 -14 -7
-23 3 -54 54 -21 34 -95 148 -166 253 -70 104 -128 195 -128 201 0 6 15 16 33
24 17 7 95 76 172 154 148 149 190 208 316 452 29 56 57 99 61 97 4 -3 27 -31
51 -62z m-3924 -429 c4 -3 -54 -90 -92 -137 l-24 -30 -34 22 c-79 51 -79 42
-4 126 l68 74 41 -26 c23 -14 43 -27 45 -29z m3276 -23 c38 -38 67 -71 64 -73
-20 -18 -94 -67 -100 -67 -11 0 -119 139 -119 154 0 9 61 51 80 55 3 1 37 -30
75 -69z m-4294 -606 c41 -39 105 -97 143 -129 74 -61 227 -165 244 -165 22 0
22 -20 1 -57 -193 -341 -265 -486 -355 -711 -23 -58 -33 -72 -47 -68 -10 2
-60 28 -112 56 -167 93 -395 291 -563 488 l-62 72 32 58 c62 111 341 598 368
642 15 25 40 64 54 88 l27 43 98 -123 c55 -68 132 -155 172 -194z m5462 264
c30 -47 332 -571 415 -720 l32 -58 -69 -77 c-104 -119 -307 -313 -391 -375
-75 -56 -236 -151 -276 -162 -17 -5 -24 1 -39 36 -103 241 -191 426 -284 598
-113 209 -113 182 -2 245 134 75 364 291 506 474 39 49 71 90 72 91 1 0 17
-24 36 -52z m-6258 -1049 c83 -97 268 -266 379 -348 101 -75 259 -170 319
-192 31 -11 37 -17 32 -34 -56 -201 -57 -204 -75 -300 -31 -160 -59 -316 -65
-360 -3 -27 -9 -63 -11 -80 -7 -40 -11 -67 -19 -147 l-7 -68 -46 0 c-48 0 -99
30 -272 159 -91 68 -458 373 -595 494 l-100 89 -42 106 c-23 59 -42 112 -43
117 0 6 46 57 103 115 83 85 127 144 237 312 74 114 137 207 140 207 3 0 32
-32 65 -70z m6915 -80 c52 -82 121 -185 153 -227 58 -77 204 -232 219 -232 16
0 7 -36 -35 -142 l-42 -107 -175 -153 c-278 -244 -591 -491 -710 -561 -49 -28
-130 -43 -130 -24 0 7 -5 41 -10 77 -5 36 -12 85 -15 110 -3 25 -8 59 -10 75
-3 17 -7 48 -10 70 -19 125 -95 487 -131 623 -4 14 -2 22 6 22 22 0 205 96
275 145 39 27 107 79 153 117 92 78 352 335 352 349 0 25 23 -4 110 -142z
m-7155 -1010 c125 -108 314 -262 448 -363 42 -32 77 -62 77 -67 0 -14 -74 3
-130 31 -30 15 -108 39 -173 54 -145 33 -242 70 -244 94 -1 18 -92 269 -119
330 -19 44 -18 59 4 40 9 -8 71 -62 137 -119z m7372 79 c-9 -18 -34 -85 -57
-148 -23 -63 -45 -124 -50 -135 -4 -11 -12 -32 -18 -46 -12 -31 -83 -59 -244
-95 -61 -14 -130 -35 -152 -46 -41 -21 -128 -48 -155 -48 -8 0 12 19 45 43 88
62 434 343 544 440 52 47 96 81 98 76 2 -4 -3 -23 -11 -41z"/>
<path d="M29510 15380 c1 -1030 -2 -1227 -14 -1292 -45 -233 -186 -420 -406
-537 -213 -113 -220 -119 -220 -201 0 -82 41 -130 137 -160 61 -19 95 -20 766
-20 386 0 711 2 722 4 44 10 110 37 128 54 72 65 58 189 -30 261 -21 17 -110
68 -198 114 -137 71 -169 92 -230 152 -51 51 -80 91 -108 148 -20 42 -37 85
-37 96 0 10 -4 31 -9 47 -19 58 -21 130 -21 752 l0 633 -126 312 c-70 172
-173 429 -231 572 -57 143 -109 264 -114 270 -6 6 -9 -453 -9 -1205z"/>
<path d="M16589 12686 c-2 -2 -24 -6 -49 -9 -60 -6 -90 -19 -122 -53 -69 -75
-68 -220 1 -302 11 -12 50 -38 88 -56 77 -38 95 -55 120 -111 17 -38 18 -127
20 -1640 2 -1455 5 -1811 17 -1885 3 -14 7 -43 10 -65 24 -186 67 -338 132
-468 92 -181 238 -335 449 -474 139 -90 342 -170 480 -189 28 -3 52 -8 55 -9
10 -6 183 -16 307 -18 90 -1 124 1 128 10 2 7 4 118 4 246 l0 233 -78 33
c-158 64 -218 175 -250 461 -6 51 -9 819 -8 1910 2 1679 3 1828 19 1860 22 48
51 72 133 113 101 51 120 83 120 201 0 71 -4 98 -18 121 -25 41 -72 72 -127
84 -42 10 -1421 17 -1431 7z"/>
<path d="M18872 12679 c-130 -16 -174 -63 -176 -183 -1 -107 17 -138 131 -232
170 -140 246 -284 282 -539 6 -44 9 -586 7 -1485 -2 -1268 -4 -1424 -19 -1505
-38 -207 -68 -298 -146 -450 -89 -174 -223 -296 -387 -354 -33 -11 -70 -22
-84 -23 l-25 -3 -3 -249 -2 -249 32 7 c18 4 38 9 43 10 51 11 136 47 214 90
368 201 602 632 667 1226 10 98 13 415 15 1450 2 1364 3 1445 14 1526 35 258
110 404 289 562 59 52 111 102 116 112 14 26 18 108 8 157 -14 64 -72 119
-140 131 -64 11 -748 12 -836 1z"/>
<path d="M20340 12676 c-124 -22 -172 -77 -172 -194 1 -114 32 -160 157 -229
59 -33 74 -47 95 -89 l25 -49 3 -1985 c3 -1478 0 -2002 -8 -2053 -14 -82 -37
-112 -119 -156 -113 -60 -146 -103 -154 -199 -7 -88 29 -164 95 -198 36 -19
1586 -21 1649 -3 77 24 120 90 120 188 1 60 -19 121 -49 155 -17 19 -117 68
-162 79 -14 4 -42 20 -62 37 -42 35 -59 80 -63 175 -2 33 -4 1067 -4 2298 l-1
2237 -642 -1 c-437 -1 -664 -5 -708 -13z"/>
<path d="M21901 12478 l-2 -213 66 -34 c74 -38 153 -105 185 -155 24 -40 47
-112 58 -181 7 -52 10 -1181 3 -1315 -4 -78 -27 -175 -54 -227 -36 -68 -119
-127 -200 -140 -21 -3 -42 -13 -47 -24 -6 -10 -10 -105 -10 -212 l0 -195 37
-7 c116 -22 212 -133 247 -287 26 -113 27 -129 32 -473 7 -547 12 -768 18
-795 2 -14 7 -42 10 -62 37 -249 159 -491 304 -606 60 -48 177 -106 257 -127
91 -25 298 -26 399 -1 168 41 314 143 436 308 135 181 231 443 198 541 -27 78
-93 147 -142 147 -31 0 -117 -83 -146 -140 -21 -41 -46 -60 -78 -60 -39 0 -43
43 -42 500 0 451 -6 540 -45 675 -63 219 -230 412 -452 523 -84 43 -300 108
-366 111 -33 2 -8 19 66 46 81 31 258 122 327 169 61 41 189 172 243 248 101
143 186 365 212 558 4 24 8 47 10 50 2 3 7 66 10 140 6 117 -5 351 -20 430
-54 287 -159 504 -327 672 -181 181 -382 283 -618 313 -93 12 -289 26 -421 31
l-147 6 -1 -214z"/>
<path d="M24272 12679 c-65 -11 -104 -30 -131 -65 -47 -59 -52 -173 -12 -252
21 -40 97 -102 126 -102 22 0 94 -60 112 -92 17 -31 18 -133 18 -2068 0 -1119
-3 -2047 -7 -2062 -13 -46 -57 -86 -139 -129 -64 -34 -85 -50 -105 -85 -62
-106 -32 -254 61 -298 33 -16 103 -17 817 -16 725 1 784 2 813 18 58 34 86
140 63 246 -13 62 -66 117 -137 141 -28 9 -60 28 -71 42 -52 67 -50 -32 -50
2133 0 1151 4 2021 9 2044 13 52 53 91 136 132 96 48 132 96 139 188 9 103
-27 170 -113 210 -45 21 -54 21 -761 22 -393 1 -739 -2 -768 -7z"/>
<path d="M26488 12681 c-66 -6 -83 -11 -114 -37 -46 -37 -66 -90 -66 -170 -1
-92 26 -132 132 -201 108 -70 136 -97 166 -155 55 -108 61 -247 18 -418 -17
-68 -33 -108 -54 -140 -10 -14 -60 -108 -112 -210 -146 -282 -242 -469 -333
-645 -318 -613 -324 -629 -311 -793 6 -67 46 -280 70 -367 4 -15 13 -51 40
-165 14 -58 37 -154 51 -215 15 -60 29 -118 31 -127 2 -10 6 -26 8 -35 7 -29
75 -312 96 -398 10 -44 33 -138 50 -210 18 -71 33 -136 35 -145 2 -8 10 -42
19 -75 22 -86 23 -168 3 -199 -10 -14 -42 -41 -72 -60 -30 -20 -67 -54 -82
-77 -25 -38 -28 -51 -28 -128 0 -102 19 -143 84 -179 l40 -23 780 1 c429 0
788 3 798 6 72 26 111 96 108 194 -2 70 -23 109 -82 157 -114 91 -135 120
-173 237 -19 60 -35 114 -36 120 -2 11 -34 124 -174 626 -109 388 -192 684
-196 700 -2 8 -13 47 -23 85 -11 39 -30 111 -44 160 -13 50 -75 270 -137 490
-61 220 -142 513 -180 650 l-69 250 68 125 c38 69 80 145 93 170 14 25 46 86
73 135 65 122 163 269 221 334 77 86 223 202 314 251 136 73 178 128 184 245
5 76 -15 139 -56 182 -59 61 -77 63 -597 61 -256 0 -501 -4 -543 -7z"/>
<path d="M28350 12681 c-136 -19 -202 -118 -172 -260 16 -73 47 -110 133 -155
85 -44 105 -60 128 -101 15 -28 16 -195 16 -2075 0 -1919 -1 -2047 -17 -2077
-21 -38 -84 -91 -118 -100 -89 -22 -150 -113 -147 -216 3 -82 30 -135 83 -165
l41 -22 778 -1 c739 0 779 1 813 19 53 27 76 79 76 171 -1 119 -41 180 -145
216 -23 9 -49 21 -56 27 -21 17 -45 68 -54 113 -13 64 -11 4004 2 4064 17 79
44 111 129 152 99 48 125 89 125 199 0 122 -32 170 -135 207 -27 10 -195 13
-735 11 -385 0 -720 -4 -745 -7z"/>
<path d="M30263 12680 c-73 -11 -114 -37 -141 -92 -39 -78 -29 -216 20 -267
13 -13 59 -42 103 -65 132 -68 120 34 123 -1016 l2 -895 -215 2 c-118 1 -217
-2 -219 -6 -3 -4 -6 -100 -6 -212 l-2 -204 219 -2 218 -1 0 -924 c0 -507 -3
-936 -6 -953 -13 -60 -32 -86 -78 -107 -131 -59 -181 -128 -180 -248 0 -74 20
-123 62 -154 28 -21 37 -21 785 -26 416 -3 778 -2 805 1 90 11 140 72 143 176
5 117 -29 172 -137 225 -84 41 -115 70 -129 118 -14 49 -14 4035 1 4097 13 60
56 107 129 139 95 43 128 88 137 183 10 118 -37 195 -137 225 -48 14 -137 16
-750 15 -382 -1 -718 -5 -747 -9z"/>
<path d="M33415 12638 c-4 -29 -15 -92 -25 -139 -39 -183 -41 -164 70 -809 26
-154 26 -152 55 -335 22 -138 157 -953 170 -1025 2 -14 14 -86 26 -160 11 -74
23 -144 25 -155 2 -11 9 -47 14 -80 6 -33 12 -71 14 -85 31 -175 89 -542 90
-567 l1 -33 -302 -2 c-166 -2 -304 -5 -306 -8 -6 -6 -53 -274 -72 -412 l-7
-48 386 0 c212 0 386 -3 386 -7 0 -3 21 -130 46 -282 51 -309 59 -443 31 -498
-10 -18 -52 -62 -95 -98 -88 -75 -111 -116 -112 -195 0 -73 28 -132 78 -165
l40 -26 771 1 c424 0 779 3 788 7 34 12 83 54 99 85 12 24 15 49 12 100 -7 88
-36 134 -121 188 -34 21 -72 54 -84 72 -21 33 -48 105 -57 152 -3 14 -7 29 -9
33 -3 5 -8 33 -12 63 -4 30 -10 75 -15 100 -4 25 -15 88 -24 140 -9 52 -18
106 -21 120 -6 27 -34 185 -42 235 -3 17 -16 93 -30 170 -13 77 -31 178 -39
225 -7 47 -16 96 -19 110 -2 14 -11 66 -19 115 -9 50 -18 102 -21 117 -3 16
-7 40 -9 55 -2 16 -16 96 -31 178 -15 83 -30 175 -35 205 -5 30 -29 170 -54
310 -25 140 -47 271 -51 290 -5 34 -21 124 -29 165 -2 11 -8 49 -14 85 -36
212 -66 385 -93 535 -29 162 -65 375 -75 440 -3 17 -9 50 -14 75 -5 25 -12 63
-15 85 -4 22 -9 49 -10 60 -32 184 -67 385 -70 405 -3 14 -12 63 -20 110 -8
47 -17 96 -19 110 -2 14 -5 28 -5 33 -1 4 -253 7 -560 7 l-559 0 -7 -52z"/>
<path d="M33201 11587 c-13 -61 -25 -123 -28 -137 -2 -14 -100 -506 -218
-1095 -117 -588 -241 -1212 -275 -1385 -102 -525 -138 -661 -208 -795 -45 -85
-147 -192 -252 -262 -41 -28 -85 -61 -96 -74 -32 -36 -47 -94 -41 -161 6 -72
37 -117 101 -147 43 -21 55 -22 475 -22 472 1 463 0 514 60 40 48 46 129 17
207 -20 53 -62 96 -141 146 -92 58 -137 114 -169 208 -36 104 -33 207 11 418
11 53 22 108 24 122 3 14 38 192 80 395 41 204 77 381 80 395 2 14 14 71 25
125 11 55 45 224 76 375 30 151 57 283 59 293 2 10 20 99 40 197 20 98 38 187
40 197 44 217 55 289 51 316 -3 17 -10 57 -16 87 -6 30 -13 71 -16 90 -3 19
-7 42 -9 50 -4 12 -24 122 -58 310 -18 99 -38 194 -40 197 -2 1 -14 -48 -26
-110z"/>
<path d="M15149 6783 c0 -5 -2 -15 -4 -23 -26 -125 -68 -342 -71 -367 -3 -24
1 -35 15 -42 10 -6 21 -7 25 -4 4 4 27 50 52 102 49 103 65 126 106 147 27 14
130 28 208 29 l45 0 2 -607 c1 -364 -2 -621 -8 -642 -10 -37 -21 -42 -109 -48
-33 -3 -35 -5 -35 -38 l0 -35 224 -3 c123 -2 234 -1 247 2 20 5 24 13 24 41
l0 35 -55 0 c-96 0 -90 -45 -90 675 l0 620 30 -1 c70 -1 196 -15 217 -23 13
-5 31 -17 40 -27 20 -23 103 -180 110 -211 7 -25 15 -28 38 -14 12 8 12 29 -4
158 -9 81 -19 168 -22 193 -11 97 -14 103 -47 72 -36 -34 -86 -50 -182 -57
-204 -15 -592 -6 -661 16 -17 5 -42 21 -54 34 -23 25 -39 32 -41 18z"/>
<path d="M21197 6783 c-5 -8 -28 -113 -33 -148 -4 -29 -14 -84 -24 -130 -5
-22 -12 -56 -15 -75 -3 -19 -8 -36 -10 -39 -2 -2 0 -12 6 -22 21 -40 43 -20
99 94 71 144 73 145 282 161 32 3 60 1 63 -5 3 -5 6 -286 5 -626 0 -533 -2
-620 -15 -640 -9 -12 -19 -22 -23 -22 -4 1 -31 1 -60 0 l-53 -1 3 -37 3 -38
238 -1 c166 -1 240 2 245 10 4 6 7 23 8 39 0 26 -1 27 -52 27 -63 0 -80 14
-89 73 -3 23 -7 306 -8 629 l-2 588 25 1 c34 2 25 2 120 -5 127 -10 144 -21
207 -146 29 -58 53 -111 53 -117 0 -7 6 -13 14 -13 21 0 34 22 31 55 -3 39
-15 144 -19 170 -2 11 -7 49 -11 85 -4 36 -8 74 -10 85 -2 11 -4 28 -4 38 -1
24 -17 21 -59 -11 -61 -47 -96 -52 -393 -52 -392 1 -431 5 -474 50 -29 31 -40
36 -48 23z"/>
<path d="M32487 6783 c-2 -5 -9 -35 -15 -68 -7 -33 -23 -114 -36 -180 -37
-182 -37 -174 -17 -184 25 -14 37 -3 67 69 37 86 81 158 106 171 47 25 268 46
268 25 0 -6 0 -287 0 -625 0 -710 7 -661 -91 -661 l-60 0 3 -37 3 -38 239 -3
c163 -2 242 1 246 8 4 6 6 23 5 38 -1 25 -4 27 -55 30 -66 4 -76 11 -84 64 -5
30 -9 837 -6 1229 0 6 62 4 155 -6 71 -7 95 -12 119 -28 19 -13 105 -172 121
-224 12 -43 54 -20 50 27 -3 36 -17 162 -20 180 -2 8 -6 44 -10 80 -4 36 -9
74 -10 85 -1 11 -3 28 -4 38 -1 21 -24 22 -42 1 -24 -30 -90 -55 -152 -59 -64
-4 -509 -4 -562 0 -16 1 -51 3 -77 3 -40 2 -55 8 -87 37 -40 36 -47 40 -54 28z"/>
<path d="M34990 6775 c-15 -18 -6 -58 20 -95 61 -86 143 -328 164 -485 3 -22
10 -69 15 -105 12 -83 12 -415 0 -500 -20 -147 -29 -197 -40 -235 -51 -175
-90 -273 -152 -376 -27 -46 -27 -46 -7 -64 20 -18 21 -17 60 25 82 89 184 283
239 452 26 84 35 122 61 264 12 72 9 325 -6 423 -38 251 -110 429 -245 611
-65 88 -90 108 -109 85z"/>
<path d="M12821 6746 c-18 -18 -59 -49 -92 -67 -59 -34 -59 -34 -53 -74 2 -22
-2 -62 -9 -90 -8 -27 -23 -77 -32 -110 -14 -50 -37 -131 -59 -215 -2 -8 -40
-141 -84 -295 -158 -551 -158 -551 -250 -562 l-33 -4 7 38 c3 21 16 88 28 148
28 138 28 169 1 173 -17 2 -25 -10 -47 -75 -36 -101 -109 -225 -149 -254 -30
-21 -46 -23 -196 -27 -99 -3 -168 -1 -174 5 -6 6 -9 233 -9 604 1 607 2 666
17 680 4 4 35 10 67 13 58 4 80 18 71 44 -3 8 -5 18 -5 23 0 5 -101 9 -241 9
l-240 0 3 -37 c3 -35 6 -38 33 -39 73 -2 74 -2 85 -44 7 -27 11 -224 10 -593
-1 -602 -2 -633 -18 -649 -6 -6 -36 -13 -67 -16 -55 -4 -55 -5 -55 -37 0 -21
6 -35 16 -39 19 -7 1201 -7 1220 1 8 3 14 19 14 39 0 33 -2 34 -37 34 -59 0
-81 10 -92 40 -5 16 -8 30 -6 32 1 1 5 19 8 38 9 69 90 375 101 382 6 4 86 8
177 8 l166 0 11 -37 c9 -33 67 -289 87 -391 9 -46 -15 -72 -66 -72 -37 0 -39
-2 -36 -28 2 -15 7 -33 10 -40 6 -8 124 -11 446 -12 469 0 458 -2 457 50 -1
22 -7 25 -50 32 -57 8 -63 13 -70 53 -8 49 -12 573 -4 580 8 8 537 9 545 1 5
-5 4 -483 -1 -565 -3 -55 -24 -71 -88 -71 -48 0 -48 0 -48 -34 0 -20 6 -36 14
-39 22 -9 456 -8 457 0 1 4 2 23 4 41 2 31 1 32 -36 32 -55 0 -86 15 -93 44
-6 25 -9 1182 -3 1219 5 27 20 37 68 43 50 6 46 4 49 24 8 52 17 50 -225 50
l-225 0 0 -35 c0 -21 5 -35 13 -36 6 0 27 -2 45 -3 51 -4 62 -22 67 -112 6
-129 6 -456 0 -463 -10 -9 -532 -7 -542 2 -8 9 -9 46 -4 317 4 238 10 251 101
254 33 1 35 3 38 39 l3 37 -240 0 -241 0 0 -35 c0 -19 3 -35 8 -36 4 0 26 -2
50 -4 50 -4 69 -17 76 -53 10 -53 16 -702 8 -960 -6 -245 -8 -265 -26 -278
-24 -17 -144 -19 -178 -3 -57 25 -88 114 -199 569 -61 252 -188 770 -201 818
-6 23 -14 44 -18 47 -4 2 -21 -11 -39 -29z m-56 -318 c9 -40 27 -118 40 -173
30 -128 75 -334 75 -346 0 -5 -69 -9 -158 -9 l-159 0 39 143 c98 355 119 433
123 445 10 29 24 7 40 -60z"/>
<path d="M19191 6746 c-18 -18 -59 -49 -92 -67 -58 -34 -59 -34 -53 -71 5 -36
-11 -101 -118 -478 -17 -58 -32 -112 -33 -120 -15 -68 -158 -543 -178 -593
-23 -54 -63 -87 -105 -87 -32 0 -34 2 -28 25 4 15 14 65 22 113 39 221 39 222
4 222 -13 0 -21 -10 -25 -32 -12 -57 -106 -238 -144 -278 -33 -34 -42 -38
-101 -43 -36 -3 -118 -6 -182 -7 l-117 -1 -4 168 c-4 165 2 1001 7 1076 2 21
8 43 14 49 5 5 37 11 70 11 l60 2 4 33 c2 18 2 35 -1 37 -2 3 -112 5 -243 5
l-238 0 0 -34 c0 -34 0 -35 54 -41 42 -6 56 -12 64 -30 23 -50 21 -1219 -2
-1251 -13 -17 -33 -22 -88 -23 -36 -1 -38 -3 -38 -35 0 -28 4 -35 25 -40 30
-8 1193 -6 1212 1 7 3 13 20 13 39 0 32 -2 34 -34 34 -46 0 -82 15 -95 37 -11
21 0 80 55 305 31 124 40 147 58 152 12 3 92 5 178 4 l157 -2 6 -25 c4 -14 9
-33 11 -41 6 -24 44 -193 48 -215 3 -11 9 -42 15 -70 19 -89 20 -103 6 -122
-14 -19 -17 -20 -63 -22 -24 -1 -28 -5 -27 -28 0 -16 4 -34 8 -40 6 -10 145
-13 640 -13 348 0 641 3 653 6 20 5 32 45 49 159 4 22 12 67 20 100 25 113 28
162 10 169 -20 7 -35 0 -35 -17 0 -21 -85 -202 -117 -248 -54 -78 -63 -81
-259 -87 l-173 -4 -4 163 c-4 181 2 1017 8 1081 2 23 8 45 13 50 4 4 34 10 66
12 61 3 78 15 72 51 -3 19 -11 20 -245 23 l-242 2 3 -37 3 -38 49 -2 c27 -1
53 -6 59 -12 11 -11 31 -568 23 -606 -3 -11 -6 -161 -7 -333 -1 -222 -5 -317
-14 -329 -15 -21 -152 -31 -192 -14 -71 29 -76 45 -313 1016 -94 386 -102 415
-110 420 -4 2 -21 -11 -39 -29z m-57 -318 c9 -40 21 -89 26 -108 5 -19 28
-118 50 -220 23 -101 44 -188 46 -192 3 -4 -67 -8 -155 -8 -128 0 -161 3 -161
13 0 8 20 85 44 173 24 87 58 213 76 279 18 66 34 123 37 128 11 19 22 1 37
-65z"/>
<path d="M29270 6739 c-25 -21 -69 -51 -97 -67 -44 -22 -52 -30 -46 -47 3 -11
6 -33 4 -50 -1 -24 -104 -406 -142 -530 -5 -16 -20 -70 -33 -120 -51 -190
-139 -472 -162 -517 -29 -57 -57 -78 -106 -78 -35 0 -38 -2 -38 -27 0 -16 4
-33 8 -40 10 -16 359 -15 370 1 4 6 7 23 8 39 0 26 -2 27 -48 27 -70 0 -92 25
-83 93 8 56 80 348 95 384 9 22 13 23 174 21 91 0 169 -4 174 -7 14 -9 83
-300 99 -416 7 -56 -9 -75 -65 -75 -32 0 -33 -1 -30 -37 l3 -38 649 -3 c407
-1 653 1 659 7 17 17 85 404 74 419 -21 26 -36 8 -71 -82 -37 -94 -96 -196
-133 -229 -29 -26 -113 -37 -258 -34 l-130 2 1 633 c1 712 -5 661 80 666 27 2
55 4 62 5 7 1 12 15 12 36 l0 35 -239 0 c-236 0 -239 0 -244 -22 -10 -37 8
-55 53 -55 23 0 46 -5 52 -11 23 -23 27 -121 25 -675 l-2 -579 -25 -20 c-22
-18 -36 -20 -107 -16 -63 3 -87 9 -104 24 -22 20 -48 63 -54 92 -3 10 -17 64
-33 122 -46 167 -282 1120 -282 1143 -1 7 -6 24 -13 39 l-12 26 -45 -39z m-42
-346 c28 -129 101 -451 108 -475 5 -17 -7 -18 -156 -18 -149 0 -161 1 -156 18
3 9 19 69 36 132 17 63 46 171 65 240 18 69 39 144 45 168 18 69 33 51 58 -65z"/>
<path d="M31332 6743 c-53 -68 -122 -181 -161 -265 -44 -95 -106 -284 -117
-355 -3 -26 -9 -57 -11 -68 -3 -11 -7 -99 -8 -195 -4 -252 33 -444 121 -637
43 -94 155 -263 196 -299 29 -23 32 -24 49 -8 21 19 16 38 -27 105 -83 132
-149 358 -174 599 -10 103 -14 351 -6 420 3 19 7 60 11 91 3 31 7 65 10 75 48
239 88 351 181 510 38 66 -15 88 -64 27z"/>
<path d="M10590 6726 c-184 -43 -306 -164 -403 -401 -48 -117 -61 -190 -61
-345 -1 -202 18 -297 89 -445 131 -270 470 -385 721 -244 114 65 238 234 289
396 39 125 53 328 30 448 -40 205 -105 344 -214 453 -56 56 -144 111 -206 129
-65 19 -184 24 -245 9z m196 -111 c133 -78 238 -285 269 -530 7 -55 8 -229 2
-260 -3 -11 -8 -45 -12 -75 -16 -121 -71 -258 -131 -329 -57 -66 -107 -93
-185 -99 -84 -6 -124 12 -205 93 -127 126 -197 351 -194 620 1 112 3 132 24
227 31 148 98 278 172 334 77 59 178 67 260 19z"/>
<path d="M26970 6712 c-12 -4 -14 -71 -2 -73 4 -1 24 -3 44 -4 54 -5 75 -20
82 -57 9 -51 8 -1220 -1 -1229 -10 -10 -47 -17 -95 -18 -37 -1 -38 -2 -38 -39
l0 -37 430 -2 c362 -2 432 0 444 12 12 13 61 197 82 309 6 35 -3 55 -27 56 -3
0 -36 -47 -73 -105 -74 -114 -125 -165 -183 -183 -20 -6 -87 -10 -149 -9 -104
2 -114 4 -138 26 -38 36 -43 66 -45 266 -1 99 -3 219 -4 266 l-2 87 71 -4 c40
-2 85 -6 100 -8 42 -8 80 -55 93 -117 14 -65 27 -82 51 -69 16 9 17 27 14 237
-2 126 -4 231 -4 236 0 12 -50 8 -54 -5 -2 -7 -9 -40 -16 -73 -9 -44 -21 -68
-44 -91 -32 -32 -34 -32 -120 -31 l-88 2 1 285 c1 156 4 287 7 290 3 3 58 4
122 2 165 -4 200 -22 291 -146 37 -50 75 -103 84 -118 19 -30 24 -32 46 -19
13 8 12 25 -8 118 -38 184 -54 243 -65 243 -274 3 -799 4 -806 2z"/>
<path d="M7618 6704 c-5 -4 -8 -20 -8 -36 0 -15 3 -28 8 -29 4 0 31 -3 61 -5
32 -2 61 -10 70 -19 20 -20 21 -40 21 -590 0 -475 -4 -639 -15 -667 -8 -20
-35 -28 -98 -28 l-48 0 3 -37 3 -38 302 -3 c331 -3 397 5 527 62 158 70 296
299 324 537 11 94 -2 333 -22 409 -29 108 -84 207 -156 280 -72 74 -130 109
-229 142 -61 20 -91 22 -401 26 -184 2 -338 0 -342 -4z m647 -104 c190 -95
302 -325 298 -615 -4 -366 -164 -630 -396 -652 -118 -10 -174 24 -191 118 -7
41 -9 1092 -1 1129 9 49 40 62 135 58 72 -3 95 -9 155 -38z"/>
<path d="M8830 6675 c0 -21 5 -35 13 -36 62 -4 93 -11 107 -24 20 -21 27 -276
20 -833 -6 -482 0 -452 -93 -452 l-48 0 3 -37 3 -38 219 -3 c148 -2 222 0 230
8 5 5 11 24 11 40 1 29 -1 30 -42 30 -29 0 -49 6 -62 19 -19 19 -20 37 -21
302 0 155 -2 285 -5 288 -16 26 20 30 275 31 234 1 266 -1 276 -15 12 -16 12
-103 0 -479 -5 -138 -9 -146 -88 -146 -48 0 -48 0 -48 -34 0 -22 6 -36 16 -40
24 -9 427 -7 442 2 7 5 14 22 16 39 4 30 4 31 -50 35 -30 3 -60 10 -67 17 -16
16 -25 371 -20 851 2 206 5 382 6 390 5 30 18 38 66 45 51 7 62 19 53 58 -4
16 -23 17 -229 17 l-224 0 3 -37 c3 -40 1 -39 75 -42 44 -2 49 -35 55 -388 2
-94 -1 -175 -5 -180 -10 -10 -532 -11 -542 -1 -7 7 -7 366 0 418 2 14 4 46 4
71 1 64 17 81 77 83 l49 2 3 37 3 37 -240 0 -241 0 0 -35z"/>
<path d="M14590 6675 c0 -26 4 -35 18 -37 9 0 29 -2 43 -3 62 -5 78 -14 88
-53 13 -46 14 -1095 2 -1170 -4 -29 -12 -57 -18 -63 -5 -5 -36 -13 -69 -17
-50 -6 -59 -10 -62 -28 -2 -12 4 -29 14 -38 14 -15 43 -17 245 -15 240 1 232
0 232 44 0 8 -1 19 -2 24 0 4 -26 11 -58 14 -31 3 -59 11 -63 17 -11 18 -21
669 -14 975 4 208 9 283 18 293 7 7 34 14 59 15 44 1 45 2 49 34 2 19 2 36 -1
38 -2 3 -112 5 -243 5 l-238 0 0 -35z"/>
<path d="M16157 6703 c-2 -5 -2 -14 -1 -20 1 -7 2 -21 3 -31 1 -12 10 -18 29
-20 73 -5 79 -16 301 -533 l101 -236 0 -236 c0 -153 -4 -245 -11 -261 -12 -26
-35 -36 -85 -36 -27 0 -33 -5 -37 -27 -10 -52 -2 -54 232 -51 l216 3 3 38 3
37 -39 0 c-23 0 -49 7 -62 18 -22 18 -23 24 -27 273 l-5 255 27 64 c61 147
314 647 337 668 16 14 40 24 64 25 37 3 39 4 42 40 l3 37 -178 -2 -178 -3 0
-30 c0 -25 5 -31 37 -40 92 -26 89 -48 -47 -355 -139 -311 -142 -318 -150
-295 -11 32 -58 155 -138 360 -79 202 -94 257 -73 274 12 10 43 18 74 20 7 1
12 15 12 36 l0 35 -224 0 c-124 0 -227 -3 -229 -7z"/>
<path d="M20637 6703 c-4 -7 -3 -39 2 -65 0 -4 29 -8 63 -10 57 -3 64 -5 76
-31 10 -21 13 -148 13 -610 0 -355 -4 -594 -10 -609 -15 -39 -25 -44 -98 -46
-42 -2 -43 -3 -43 -36 0 -19 6 -36 13 -39 6 -2 116 -4 242 -3 l230 1 3 38 3
37 -48 1 c-26 1 -51 1 -55 0 -4 0 -14 10 -23 22 -15 24 -17 150 -15 1038 0
228 3 238 60 240 62 3 70 8 70 45 l0 34 -239 0 c-132 0 -242 -3 -244 -7z"/>
<path d="M22224 6673 c1 -38 1 -38 44 -39 73 -3 89 -11 96 -46 11 -53 6 -1172
-5 -1212 -9 -32 -13 -35 -57 -41 -26 -4 -51 -8 -56 -9 -12 -3 -17 -35 -10 -59
5 -17 22 -18 227 -16 122 0 227 3 234 6 7 3 13 20 13 39 l0 34 -59 0 c-41 0
-62 5 -72 16 -10 12 -13 77 -13 280 l-1 264 125 3 c140 4 206 23 277 78 110
88 162 259 128 422 -29 142 -92 228 -203 280 l-67 31 -301 4 -301 4 1 -39z
m514 -55 c97 -49 154 -166 153 -317 -1 -163 -34 -244 -129 -312 -41 -30 -54
-33 -108 -33 -103 1 -94 -32 -94 342 0 181 3 332 7 335 16 17 127 6 171 -15z"/>
<path d="M23062 6673 l3 -38 48 -1 c30 -1 55 -8 65 -18 18 -18 19 -54 26 -651
3 -322 5 -356 25 -424 38 -129 84 -201 161 -251 89 -57 241 -76 350 -44 165
49 265 204 295 454 3 25 8 232 11 460 6 445 9 469 57 471 12 1 27 2 32 4 6 1
18 3 28 3 13 2 17 11 17 37 l0 35 -185 0 -185 0 0 -37 c0 -37 1 -38 42 -40 22
-2 49 -10 59 -19 34 -31 37 -65 44 -534 5 -315 3 -376 -11 -444 -32 -154 -75
-223 -168 -267 -99 -47 -195 -37 -267 28 -56 50 -74 89 -105 218 -11 44 -14
925 -3 961 12 42 43 57 132 63 13 1 17 10 17 36 l0 35 -246 0 -245 0 3 -37z"/>
<path d="M24200 6675 c0 -19 3 -35 8 -36 4 -1 22 -2 40 -3 71 -4 67 30 68
-629 0 -326 -3 -609 -8 -629 -9 -38 -12 -40 -98 -51 -10 -2 -15 -14 -15 -37
l0 -35 200 -3 c110 -1 209 0 220 3 15 3 20 12 20 40 l1 35 -48 0 c-78 0 -78 3
-85 314 l-6 266 46 0 c83 0 120 -53 251 -355 100 -231 133 -294 160 -301 12
-2 80 -3 151 -2 l130 3 3 38 c3 36 2 37 -30 37 -75 1 -92 24 -248 331 -81 159
-125 233 -153 261 -28 26 -34 38 -23 38 10 0 38 10 64 21 110 50 172 132 196
259 38 199 -32 353 -196 434 l-71 35 -289 1 -288 1 0 -36z m469 -49 c27 -6 66
-29 99 -60 64 -57 96 -194 76 -314 -17 -93 -64 -183 -118 -223 -48 -35 -132
-62 -173 -55 -15 2 -32 5 -38 5 -6 1 -9 111 -8 312 2 360 -1 350 87 344 28 -2
62 -6 75 -9z"/>
<path d="M25745 6673 c1 -36 2 -36 44 -39 24 -2 52 -11 63 -21 26 -24 54 -79
62 -125 14 -78 6 -930 -10 -1060 -8 -67 -35 -98 -85 -98 -38 0 -39 -1 -39 -34
0 -20 6 -36 15 -39 7 -3 85 -5 172 -4 l158 2 0 34 c0 32 -3 35 -45 45 -65 16
-78 48 -84 206 -11 275 -18 890 -10 890 5 0 45 -60 89 -133 100 -166 325 -530
492 -796 123 -195 179 -271 201 -271 19 0 22 48 20 350 -3 353 11 859 28 983
7 52 29 76 68 72 21 -3 25 2 28 32 2 20 -1 37 -7 39 -6 3 -84 3 -174 2 -153
-3 -164 -4 -167 -22 -4 -25 13 -57 29 -55 33 4 58 -3 83 -24 25 -22 28 -32 35
-123 13 -154 22 -851 11 -839 -5 6 -37 57 -72 115 -35 58 -98 161 -140 230
-42 69 -142 235 -223 370 -80 135 -161 268 -179 295 l-33 50 -165 2 -165 1 0
-35z"/>
<path d="M27910 6671 l0 -41 59 0 c38 0 63 -5 70 -14 9 -10 12 -175 12 -626 0
-536 -2 -616 -16 -636 -8 -13 -19 -23 -23 -23 -4 1 -26 1 -49 0 l-43 -1 0 -41
0 -40 230 2 c153 1 233 6 239 13 5 6 8 22 6 36 -1 23 -7 25 -58 30 -31 3 -63
12 -71 20 -13 13 -16 59 -16 279 l-1 264 110 -1 c60 -1 127 4 148 9 181 47
281 188 281 399 0 139 -64 282 -153 341 -89 58 -115 62 -432 67 l-293 4 0 -41z
m519 -55 c63 -33 118 -117 139 -211 13 -62 7 -215 -12 -272 -20 -60 -73 -124
-129 -157 -35 -21 -52 -24 -106 -21 -35 2 -65 6 -67 8 -2 2 -5 153 -7 336 -2
368 -8 332 58 344 26 4 90 -10 124 -27z"/>
<path d="M31472 6673 c3 -36 5 -37 42 -40 22 -1 45 -8 53 -15 11 -11 13 -128
13 -631 0 -415 -3 -624 -10 -637 -8 -15 -21 -20 -56 -20 l-45 0 3 -37 3 -38
203 -2 c149 -1 202 2 203 10 6 61 6 62 -39 68 -23 3 -46 10 -51 15 -5 5 -12
147 -16 315 l-7 306 30 -5 c17 -2 39 -14 50 -26 11 -11 66 -109 122 -216 56
-107 115 -217 129 -245 54 -99 57 -145 10 -145 -17 0 -20 -6 -17 -37 l3 -38
202 -2 c112 -1 209 0 218 3 9 4 15 19 15 40 0 29 -3 34 -25 35 -28 2 -30 2
-65 11 -26 8 -57 49 -139 191 -27 45 -81 138 -121 207 -40 69 -103 177 -141
242 l-69 116 49 80 c63 101 172 261 227 333 69 91 111 120 178 123 17 1 21 8
22 39 l2 37 -170 0 -169 0 3 -37 c2 -21 9 -39 16 -39 6 -1 18 -2 26 -3 23 -2
26 -41 4 -79 -11 -21 -37 -64 -57 -97 -21 -33 -82 -132 -137 -220 -107 -173
-129 -199 -167 -203 l-25 -2 5 288 c5 318 4 314 70 316 36 2 38 3 41 39 l3 37
-211 0 -211 0 3 -37z"/>
<path d="M33514 6696 c-3 -8 -4 -25 -2 -38 3 -20 9 -23 58 -25 39 -2 60 -9 75
-23 19 -20 20 -32 20 -353 0 -183 -3 -388 -7 -457 -3 -69 -7 -168 -9 -220 -5
-198 -29 -250 -114 -250 l-46 0 3 -37 3 -38 183 -2 c101 -1 190 1 198 4 8 3
14 19 14 39 0 33 -1 34 -42 35 -24 1 -46 1 -49 1 -14 -2 -37 35 -49 78 -15 52
-26 1165 -11 1156 12 -8 67 -175 216 -661 165 -536 190 -610 210 -610 26 0 4
-63 372 1068 37 114 71 207 75 207 5 0 4 -1094 -1 -1192 -2 -33 -30 -48 -92
-48 l-59 0 0 -34 c0 -22 6 -36 17 -40 9 -4 114 -6 234 -6 231 1 234 2 234 50
0 23 -4 25 -50 28 -60 4 -71 12 -79 57 -5 27 -8 588 -6 1171 0 50 19 78 56 80
16 1 37 2 47 3 13 1 17 10 17 36 l0 35 -156 -1 c-204 -3 -201 -2 -215 -53 -12
-48 -41 -137 -191 -601 -127 -396 -134 -415 -141 -395 -3 8 -26 85 -52 170
-26 85 -62 202 -80 260 -18 58 -40 128 -48 155 -18 58 -85 277 -119 385 l-23
75 -193 3 c-161 2 -193 0 -198 -12z"/>
<path d="M17213 5498 c-32 -35 -44 -65 -45 -109 -1 -58 18 -93 68 -129 44 -32
45 -33 43 -84 -3 -61 -35 -141 -89 -218 -25 -35 -36 -59 -29 -63 22 -14 60 8
112 66 87 96 131 199 136 317 3 68 -19 155 -47 187 -49 58 -113 72 -149 33z"/>
<path d="M25297 5500 c-32 -25 -46 -65 -42 -124 3 -55 24 -90 70 -117 40 -24
48 -44 40 -99 -10 -67 -32 -119 -81 -186 -45 -64 -49 -84 -14 -84 22 0 94 69
138 132 58 84 85 171 85 271 -1 73 -5 96 -25 135 -42 82 -117 114 -171 72z"/>
</g>
</svg>
